<?xml version="1.0" encoding="UTF-8"?>
<svg id="Layer_2" data-name="Layer 2" xmlns="http://www.w3.org/2000/svg" viewBox="0 0 250.17 250.17">
  <defs>
    <style>
      .cls-1 {
        fill: #1f252f;
      }

      .cls-2 {
        fill: #dba542;
      }
    </style>
  </defs>
  <g id="Layer_1-2" data-name="Layer 1">
    <rect class="cls-2" width="250.17" height="250.17"/>
    <g>
      <polyline class="cls-1" points="24.47 83.11 24.47 23.61 88.58 23.61 24.47 83.11"/>
      <polyline class="cls-1" points="88.58 226.56 24.47 226.56 24.47 167.06 88.58 226.56"/>
      <polyline class="cls-1" points="225.7 83.11 161.59 23.61 225.7 23.61 225.7 83.11"/>
      <polyline class="cls-1" points="225.7 226.56 161.59 226.56 225.7 167.06 225.7 226.56"/>
      <path class="cls-1" d="M77.38,199.91l-26.45-24.89,21.67-24.61c6.42-7.3,9.98-16.75,9.98-26.54s-3.55-19.24-9.97-26.54l-16.93-24.34,25.17-22.39,17.05,16.02c7.79,7.32,18.01,11.38,28.62,11.38h0c9.49,0,18.7-3.25,26.14-9.23l22.62-18.17,23.24,23.38-19.09,23.39c-6.36,7.79-9.83,17.59-9.83,27.71v.57c0,11.05,4.15,21.68,11.59,29.73l15.85,17.13-24.47,23.63-15.93-16.2c-8-8.14-18.86-12.71-30.18-12.71s-22.72,4.81-30.76,13.32l-18.31,19.36M124.72,103.64c-11.74,0-21.26,9.68-21.26,21.62s9.52,21.62,21.26,21.62,21.26-9.68,21.26-21.62-9.52-21.62-21.26-21.62"/>
    </g>
  </g>
</svg>